# xmcd
#
# Track frame offsets:
#	150
#	12090
#	18922
#	27542
#	36277
#	48422
#	59707
#	70872
#	81237
#	91952
#	102565
#	113665
#	124202
#
# Disc length: 1774
#
# Revision: 3
# Processed by: cddbd v1.5.1PL0 Copyright (c) Steve Scherf et al.
# Submitted via: CDex 1.40Release
# Normalized: r2:TRMNUM
#
DISCID=ae06ec0d
DTITLE=Waylon Jennings - Waylon Jennings
DYEAR=1991
DGENRE=Country
TTITLE0=Waylon Jennings-Crying
TTITLE1=Waylon Jennings-It´s So Easy
TTITLE2=Waylon Jennings-Abelene
TTITLE3=Waylon Jennings-Love´s Gonna Live Here
TTITLE4=Waylon Jennings-Don´t Think Twice
TTITLE5=Waylon Jennings-Sally Was A Good Girl
TTITLE6=Waylon Jennings-Big Mamou
TTITLE7=Waylon Jennings-White Lightnin
TTITLE8=Waylon Jennings-Burning Memories
TTITLE9=Waylon Jennings-Lorena
TTITLE10=Waylon Jennings-Dream Baby
TTITLE11=Waylon Jennings-Money
TTITLE12=Waylon Jennings-Mean Old Greyhound Bus
EXTD=YEAR: 1991 ID3G: 2
EXTT0=
EXTT1=
EXTT2=
EXTT3=
EXTT4=
EXTT5=
EXTT6=
EXTT7=
EXTT8=
EXTT9=
EXTT10=
EXTT11=
EXTT12=
PLAYORDER=
